<svg aria-hidden="true" style="position: absolute; width: 0; height: 0; overflow: hidden;" version="1.1" xmlns="http://www.w3.org/2000/svg" xmlns:xlink="http://www.w3.org/1999/xlink">
<defs>
<symbol id="icon-footer-x" viewBox="0 0 56 32">
<path d="M45.788 0.237c-0.034 0.040-0.102 0.164-0.147 0.277-0.045 0.107-0.158 0.288-0.248 0.395-0.423 0.497-0.564 0.847-0.751 1.862-0.226 1.253-0.525 1.981-0.705 1.693-0.017-0.028-0.056-0.502-0.085-1.044-0.045-0.847-0.073-1.055-0.203-1.405-0.113-0.299-0.158-0.564-0.186-1.010-0.039-0.655-0.102-0.818-0.271-0.649-0.056 0.051-0.113 0.243-0.135 0.463-0.034 0.265-0.107 0.474-0.26 0.751-0.198 0.35-0.214 0.412-0.214 0.83 0 0.299 0.056 0.677 0.164 1.117 0.090 0.373 0.164 0.801 0.169 0.959l0.006 0.293-0.288 0.090c-0.418 0.135-0.547 0.243-0.728 0.576-0.226 0.412-0.26 1.010-0.085 1.687 0.119 0.468 0.119 0.508 0.034 0.959-0.045 0.26-0.096 0.773-0.113 1.146-0.045 1.157-0.395 1.93-1.355 3.014-0.231 0.26-0.26 0.322-0.231 0.468 0.028 0.124 0.011 0.198-0.073 0.288-0.192 0.209-0.576 0.79-0.576 0.869 0 0.040 0.056 0.073 0.13 0.073 0.277 0 0.265 0.023-0.288 0.864-0.248 0.378-0.35 0.57-0.305 0.615 0.039 0.040 0.090 0.034 0.169-0.006 0.322-0.169 0.31-0.023-0.045 0.514-0.367 0.559-0.79 0.813-1.005 0.598-0.102-0.102-0.085-0.141 0.073-0.181s0.192-0.175 0.056-0.226c-0.119-0.045-0.107-0.147 0.017-0.147 0.051 0 0.13-0.023 0.169-0.051 0.096-0.056-0.271-0.451-0.559-0.598-0.237-0.124-0.282-0.186-0.237-0.356 0.023-0.090 0-0.152-0.073-0.209-0.085-0.062-0.090-0.090-0.039-0.147 0.090-0.090 0.011-0.237-0.254-0.468-0.361-0.31-0.406-0.373-0.406-0.536 0-0.124-0.079-0.243-0.339-0.502-0.186-0.186-0.339-0.361-0.339-0.395s-0.062-0.135-0.141-0.226c-0.079-0.096-0.13-0.209-0.113-0.254 0.023-0.045-0.023-0.119-0.107-0.175s-0.147-0.147-0.147-0.22c0-0.158-0.096-0.265-0.237-0.265-0.248 0-0.169-0.181 0.26-0.576 2.15-1.975 3.279-5.559 2.241-7.1-0.361-0.542-0.751-0.711-1.501-0.66-0.722 0.051-1.405 0.327-2.511 1.022-0.367 0.231-0.626 0.361-0.689 0.339-0.090-0.028-0.531 0.327-0.931 0.751-0.22 0.231-0.339 0.119-0.152-0.147 0.062-0.085 0.073-0.147 0.034-0.186-0.056-0.056-0.587 0.502-0.869 0.926-0.22 0.339-0.547 0.429-0.655 0.186-0.079-0.169-0.124-0.175-0.299-0.023-0.090 0.079-0.175 0.102-0.265 0.079s-0.175 0-0.243 0.062c-0.096 0.085-0.107 0.090-0.141 0-0.017-0.051-0.023-0.147-0.006-0.209 0.068-0.243-0.135-0.181-0.468 0.147-0.282 0.277-0.344 0.316-0.418 0.26-0.045-0.040-0.113-0.056-0.152-0.034-0.096 0.062-0.164-0.090-0.13-0.299 0.051-0.26-0.090-0.237-0.288 0.045-0.22 0.316-0.277 0.288-0.231-0.113 0.034-0.282 0.023-0.339-0.045-0.339-0.045 0-0.119 0.045-0.158 0.102-0.243 0.339-0.395 0.48-0.44 0.406-0.028-0.045-0.034-0.147-0.017-0.231s0-0.169-0.040-0.192c-0.085-0.051-0.288 0.181-0.457 0.519-0.135 0.282-0.203 0.305-0.254 0.085-0.079-0.316-0.22-0.378-0.31-0.141l-0.062 0.158-0.085-0.13c-0.124-0.175-0.277-0.158-0.35 0.045-0.051 0.158-0.175 0.237-0.175 0.113 0-0.034-0.062-0.085-0.135-0.113s-0.158-0.107-0.175-0.181c-0.107-0.339-0.367-0.536-0.367-0.277 0 0.158-0.169 0.683-0.22 0.683-0.028 0-0.113-0.119-0.186-0.26s-0.158-0.26-0.192-0.254c-0.028 0-0.062 0.090-0.079 0.203s-0.045 0.209-0.073 0.214c-0.023 0.006-0.265-0.243-0.536-0.553s-0.542-0.57-0.598-0.581c-0.085-0.017-0.096 0-0.062 0.079 0.096 0.231 0.102 0.361 0.011 0.361-0.045 0-0.096-0.023-0.107-0.045-0.040-0.102-1.247-1.067-1.789-1.428-1.044-0.7-1.772-0.999-2.602-1.050-0.446-0.028-0.525-0.017-0.801 0.107-0.53 0.243-0.954 0.784-1.095 1.394-0.164 0.677-0.068 1.733 0.231 2.63 0.35 1.033 1.061 2.218 1.772 2.952 0.22 0.231 0.401 0.435 0.401 0.463 0 0.023-0.040 0.073-0.085 0.113s-0.085 0.152-0.085 0.248c0 0.124-0.045 0.226-0.147 0.322-0.085 0.073-0.198 0.237-0.254 0.361-0.124 0.254-0.316 0.604-0.474 0.835-0.085 0.135-0.090 0.181-0.040 0.271 0.062 0.096 0.051 0.119-0.062 0.158-0.186 0.073-0.26 0.181-0.254 0.378 0.006 0.096-0.040 0.26-0.090 0.367-0.090 0.186-0.090 0.192 0.017 0.271 0.113 0.073 0.107 0.079-0.124 0.237-0.367 0.243-0.717 0.559-0.717 0.649 0 0.051 0.062 0.079 0.192 0.079 0.214 0 0.372 0.045 0.372 0.113 0 0.023-0.164 0.147-0.367 0.282-0.214 0.135-0.429 0.327-0.514 0.457-0.073 0.119-0.164 0.22-0.192 0.22-0.141 0-0.034 0.164 0.169 0.254 0.124 0.056 0.226 0.119 0.226 0.141 0 0.056-0.835 0.564-0.926 0.564-0.096 0-0.277-0.282-0.649-1.010-0.31-0.604-0.316-0.694-0.028-0.638 0.073 0.011 0.135 0.011 0.135-0.011 0-0.017-0.158-0.22-0.344-0.446-0.406-0.48-0.841-1.106-0.841-1.213 0-0.056 0.045-0.068 0.164-0.040 0.339 0.073 0.339 0.062-0.835-1.716-0.446-0.677-0.514-0.892-0.243-0.745 0.062 0.034 0.175 0.062 0.243 0.062 0.107 0 0.056-0.073-0.293-0.44-0.92-0.954-1.315-1.75-1.631-3.313-0.062-0.31-0.152-0.677-0.203-0.818-0.164-0.452-0.525-0.734-0.937-0.734-0.384 0-0.384 0.023-0.322-1.862 0.023-0.824-0.017-0.982-0.373-1.445-0.175-0.22-0.265-0.412-0.31-0.621-0.034-0.164-0.113-0.361-0.169-0.429-0.096-0.119-0.113-0.124-0.198-0.040-0.079 0.079-0.085 0.135-0.028 0.429 0.073 0.367 0.056 0.756-0.051 1.287-0.056 0.271-0.062 0.519-0.006 1.213 0.096 1.185 0.096 1.196 0.017 1.225-0.034 0.011-0.158-0.096-0.265-0.248-0.339-0.457-0.581-0.982-0.711-1.513-0.158-0.672-0.339-0.988-0.83-1.479-0.22-0.226-0.418-0.457-0.44-0.519-0.040-0.135-0.248-0.214-0.31-0.119-0.023 0.040-0.011 0.175 0.028 0.305 0.040 0.124 0.119 0.485 0.169 0.796 0.147 0.858 0.282 1.236 0.61 1.738 0.525 0.807 0.525 1.022-0.006 0.965-0.389-0.045-0.559 0.040-0.7 0.356-0.119 0.271-0.113 0.35 0.040 0.892 0.023 0.079-0.023 0.186-0.135 0.333-0.214 0.271-0.226 0.508-0.034 0.886 0.22 0.446 0.446 0.745 1.033 1.36 0.728 0.773 0.965 1.061 1.298 1.597 0.621 1.005 0.847 1.874 0.959 3.663 0.040 0.643 0.119 0.807 0.226 0.485 0.113-0.316 0.237-0.152 0.237 0.322 0 0.186 0.034 0.271 0.152 0.378 0.147 0.135 0.152 0.158 0.152 0.807 0.006 0.649 0.011 0.666 0.13 0.649 0.068-0.011 0.135 0.011 0.158 0.045s0.034 0.367 0.034 0.734c-0.006 0.372 0.006 0.677 0.023 0.677s0.079-0.028 0.141-0.068c0.056-0.040 0.13-0.051 0.152-0.023 0.023 0.023 0.045 0.372 0.051 0.773 0 0.395 0.017 0.739 0.034 0.756s0.085-0.056 0.152-0.169c0.209-0.356 0.265-0.254 0.57 1.033 0.181 0.79 0.248 0.909 0.395 0.773 0.090-0.079 0.135-0.040 0.593 0.536 0.553 0.7 1.275 1.405 1.947 1.919 0.514 0.389 0.7 0.61 0.852 1.016 0.096 0.26 0.214 1.084 0.22 1.535 0 0.119 0.028 0.158 0.113 0.158 0.079 0 0.169-0.113 0.322-0.406 0.119-0.22 0.243-0.401 0.271-0.395 0.034 0.011 0.056 0.316 0.056 0.784 0 0.858 0.034 0.931 0.299 0.632 0.226-0.254 0.367-0.198 0.327 0.13-0.062 0.508-0.090 1.433-0.045 1.496 0.034 0.056 2.269 0.073 10.734 0.073 6.598 0 10.706-0.017 10.74-0.051s0.023-0.282-0.039-0.666c-0.051-0.333-0.096-0.751-0.102-0.92-0.017-0.305-0.011-0.31 0.147-0.327 0.152-0.017 0.158-0.028 0.124-0.226-0.113-0.643-0.113-0.745 0.006-0.745 0.062 0 0.147 0.040 0.186 0.085 0.186 0.226 0.214 0.045 0.079-0.491-0.119-0.451-0.073-0.982 0.102-1.298s0.288-0.378 0.44-0.243c0.141 0.124 0.175 0.090 0.316-0.277 0.141-0.378 0.564-0.948 0.689-0.926 0.051 0.011 0.124 0.102 0.158 0.203 0.079 0.254 0.152 0.158 0.333-0.44 0.079-0.26 0.243-0.683 0.367-0.937 0.356-0.734 0.491-0.813 0.655-0.356 0.107 0.288 0.282 0.463 0.327 0.322 0.017-0.040 0.039-0.44 0.056-0.892 0.028-0.897 0.096-1.338 0.412-2.675 0.22-0.942 0.288-1.061 0.474-0.818 0.090 0.113 0.113 0.124 0.164 0.051 0.028-0.045 0.045-0.113 0.034-0.147-0.017-0.040-0.045-0.401-0.068-0.807-0.034-0.66-0.028-0.739 0.051-0.739 0.051 0 0.13 0.073 0.175 0.164 0.090 0.175 0.237 0.26 0.288 0.175 0.017-0.028 0.006-0.277-0.034-0.547-0.039-0.316-0.051-0.79-0.028-1.315 0.034-0.728 0.051-0.83 0.152-0.914 0.113-0.096 0.113-0.119 0.045-0.61-0.141-1.067-0.011-1.676 0.53-2.438 0.48-0.677 0.694-1.213 0.835-2.077 0.068-0.457 0.265-0.756 0.784-1.202 0.457-0.384 0.717-0.751 0.768-1.084 0.051-0.339-0.034-0.542-0.282-0.705-0.198-0.124-0.209-0.152-0.181-0.339 0.107-0.638 0.102-0.643-0.034-0.847-0.265-0.395-0.581-0.418-1.027-0.079-0.141 0.107-0.271 0.169-0.288 0.135-0.051-0.079 0.056-0.418 0.339-1.134 0.361-0.897 0.412-1.14 0.435-2.19 0.017-0.914-0.011-1.084-0.164-0.897zM45.172 2.353c-0.073 0.282-0.107 0.344-0.152 0.271-0.051-0.096-0.011-0.423 0.073-0.587 0.028-0.051 0.068-0.141 0.090-0.203 0.096-0.254 0.085 0.158-0.011 0.519zM43.107 2.489c0.073 0.536 0.056 0.666-0.073 0.559-0.096-0.079-0.254-0.536-0.254-0.722 0-0.13 0.141-0.35 0.22-0.35 0.023 0 0.068 0.231 0.107 0.514zM9.673 3.392c0.068 0.119 0.096 0.243 0.073 0.384-0.034 0.282-0.198 0.643-0.265 0.598-0.034-0.017-0.056-0.277-0.056-0.598 0-0.61 0.056-0.705 0.248-0.384zM7.444 3.702c0.085 0.22 0.102 0.344 0.062 0.406-0.045 0.079-0.051 0.079-0.056 0.011 0-0.045-0.034-0.152-0.079-0.237-0.107-0.203-0.169-0.497-0.102-0.497 0.028 0 0.107 0.141 0.175 0.316zM36.808 3.725c0.051 0.079 0.135 0.113 0.282 0.113 0.169 0 0.265 0.045 0.446 0.209 0.282 0.26 0.468 0.598 0.412 0.768-0.023 0.068-0.045 0.48-0.051 0.914-0.017 1.467-0.418 2.562-1.371 3.77-0.35 0.44-0.999 0.999-1.163 0.999-0.096 0-0.090-0.023 0.073-0.192 0.152-0.158 0.181-0.22 0.152-0.361-0.034-0.141-0.011-0.186 0.13-0.31 0.096-0.079 0.175-0.169 0.175-0.198 0-0.079-0.141-0.124-0.277-0.085-0.231 0.062-0.113-0.090 0.198-0.248 0.395-0.198 0.514-0.322 0.423-0.435-0.056-0.062 0.006-0.158 0.327-0.502 0.502-0.542 0.587-0.677 0.542-0.835-0.028-0.079 0.006-0.231 0.102-0.44 0.322-0.728 0.333-1.005 0.034-1.27-0.119-0.107-0.158-0.186-0.135-0.248 0.068-0.169 0.056-0.203-0.068-0.26-0.068-0.034-0.13-0.107-0.141-0.169-0.011-0.056-0.068-0.141-0.135-0.181-0.096-0.068-0.141-0.062-0.333 0.034-0.124 0.062-0.231 0.113-0.243 0.113-0.006 0-0.011-0.096 0-0.214l0.017-0.209-0.226 0.017c-0.683 0.056-1.513 0.536-2.229 1.292-0.621 0.655-0.728 0.892-0.333 0.756 0.282-0.096 0.31 0.011 0.051 0.192-0.135 0.090-0.243 0.22-0.26 0.305-0.017 0.079-0.056 0.22-0.079 0.305-0.102 0.322 0.011 0.378 0.435 0.203 0.102-0.040 0.198-0.056 0.22-0.040 0.056 0.062-1.112 1.185-1.196 1.151-0.045-0.017-0.079-0.107-0.079-0.209 0-0.169-0.011-0.175-0.169-0.147-0.169 0.034-0.169 0.034-0.169-0.214 0-0.277-0.113-0.35-0.226-0.141-0.068 0.124-0.169 0.102-0.169-0.034 0-0.051 0.062-0.226 0.141-0.395s0.141-0.322 0.141-0.333c0-0.068-0.22-0.023-0.282 0.056-0.102 0.124-0.169 0.102-0.169-0.045 0-0.226 0.536-0.959 1.084-1.484 1.033-0.982 2.432-1.772 3.629-2.049 0.344-0.079 0.418-0.073 0.491 0.051zM18.912 3.843c1.055 0.344 2.382 1.134 3.347 1.998 0.384 0.339 0.92 0.959 1.050 1.202 0.073 0.152 0.13 0.971 0.062 0.971-0.028 0-0.090-0.051-0.147-0.113-0.062-0.068-0.158-0.113-0.226-0.102-0.062 0.006-0.175-0.028-0.254-0.085-0.073-0.051-0.169-0.096-0.209-0.096-0.085 0-0.096 0.175-0.023 0.254 0.040 0.045 0.231 0.7 0.231 0.796 0 0.011-0.045 0.023-0.096 0.023-0.056 0-0.237-0.141-0.406-0.305-0.169-0.169-0.48-0.418-0.689-0.547-0.209-0.135-0.384-0.277-0.384-0.31-0.006-0.040 0.062-0.107 0.141-0.164 0.141-0.090 0.141-0.096 0.040-0.209-0.056-0.062-0.169-0.147-0.254-0.192-0.214-0.113-0.209-0.248 0.011-0.248 0.395 0-0.006-0.305-0.547-0.423-0.198-0.040-0.327-0.158-0.271-0.254 0.017-0.028 0.158-0.056 0.31-0.056s0.288-0.023 0.31-0.051c0.034-0.062-0.299-0.339-0.847-0.694s-0.909-0.53-1.321-0.638c-0.356-0.090-0.356-0.090-0.564 0.045-0.113 0.079-0.237 0.152-0.282 0.164-0.090 0.023-0.135 0.547-0.062 0.672 0.023 0.034-0.006 0.175-0.062 0.305-0.107 0.237-0.107 0.237 0.034 0.655 0.079 0.231 0.237 0.604 0.35 0.83 0.181 0.356 0.198 0.435 0.135 0.53-0.085 0.13-0.073 0.141 0.525 0.762 0.395 0.406 0.457 0.581 0.147 0.401-0.152-0.085-0.226-0.079-0.226 0.017 0 0.028 0.152 0.226 0.339 0.44 0.186 0.22 0.339 0.406 0.339 0.423 0 0.158-0.655-0.333-1.072-0.796-0.632-0.711-1.050-1.518-1.219-2.353-0.085-0.423-0.085-0.559-0.034-0.926 0.040-0.231 0.135-0.57 0.214-0.751 0.090-0.198 0.141-0.389 0.119-0.474-0.017-0.113 0.006-0.169 0.124-0.243 0.079-0.051 0.22-0.147 0.305-0.22 0.090-0.073 0.22-0.13 0.293-0.13 0.085 0 0.147-0.039 0.169-0.113 0.045-0.141 0.147-0.141 0.598 0.006zM44.586 4.453c0 0.164-0.135 0.333-0.192 0.243-0.039-0.062 0.085-0.406 0.147-0.406 0.023 0 0.045 0.073 0.045 0.164zM46.019 4.944c0.152 0.062 0.102 0.282-0.152 0.626-0.452 0.604-0.897 0.892-1.174 0.751-0.056-0.034-0.107-0.096-0.107-0.135 0-0.169 0.638-0.869 1.010-1.112 0.271-0.175 0.288-0.181 0.423-0.13zM42.633 5.604c0.164 0.22 0.169 0.858 0.011 0.976-0.090 0.062-0.124 0.062-0.22-0.006-0.203-0.141-0.322-0.384-0.322-0.649 0-0.48 0.282-0.655 0.53-0.322zM8.415 5.909c0.028 0.079 0.045 0.169 0.040 0.192-0.028 0.085-0.147-0.034-0.186-0.192-0.051-0.203 0.068-0.203 0.147 0zM46.279 6.298c0.119 0.135 0.006 0.356-0.327 0.626-0.31 0.254-0.514 0.305-0.632 0.158-0.113-0.135-0.017-0.339 0.288-0.615s0.536-0.333 0.672-0.169zM43.446 6.564c0.124 0.113 0.169 0.265 0.073 0.265-0.102 0-0.344-0.243-0.344-0.344 0-0.124 0.062-0.107 0.271 0.079zM7.427 6.693c0.406 0.22 0.976 0.689 1.016 0.847 0.045 0.175-0.062 0.305-0.254 0.305-0.175 0-0.818-0.418-1.14-0.739-0.226-0.226-0.271-0.372-0.152-0.491 0.102-0.102 0.226-0.085 0.53 0.079zM10.802 6.671c0.147 0.209 0.169 0.48 0.062 0.756-0.181 0.48-0.423 0.452-0.553-0.068-0.090-0.35-0.068-0.485 0.102-0.666 0.164-0.181 0.277-0.186 0.389-0.023zM44.382 6.987c0.068 0.113-0.418 0.536-0.514 0.446-0.034-0.034 0.079-0.26 0.198-0.395 0.090-0.102 0.265-0.13 0.316-0.051zM44.981 7.478c0 0.079-0.164 0.198-0.277 0.198-0.107 0-0.068-0.158 0.062-0.248s0.214-0.073 0.214 0.051zM9.956 7.726c0.045 0.073-0.237 0.401-0.344 0.401-0.056 0-0.068-0.034-0.040-0.13 0.073-0.248 0.299-0.406 0.384-0.271zM7.534 8.042c0.378 0.254 0.446 0.333 0.401 0.502-0.051 0.198-0.277 0.231-0.576 0.085-0.372-0.175-0.643-0.593-0.491-0.745 0.090-0.096 0.389-0.023 0.666 0.158zM9.205 8.46c0.288 0.288 0.192 0.378-0.181 0.164-0.13-0.073-0.22-0.164-0.22-0.226 0-0.158 0.209-0.124 0.401 0.062zM8.618 8.945c0.017 0.051 0.017 0.102 0 0.124-0.062 0.056-0.322-0.040-0.322-0.124 0-0.113 0.277-0.113 0.322 0zM24.911 11.795c0.181 0.124 0.378 0.226 0.44 0.226 0.107 0 0.107-0.045 0.006-0.316-0.011-0.040 0.006-0.085 0.045-0.113 0.045-0.028 0.124 0.023 0.214 0.13 0.079 0.096 0.203 0.192 0.277 0.209 0.068 0.023 0.124 0.068 0.124 0.102s0.056 0.045 0.13 0.023c0.119-0.028 0.147 0.006 0.265 0.293 0.073 0.175 0.164 0.361 0.203 0.412 0.045 0.045 0.079 0.152 0.079 0.231s0.040 0.22 0.085 0.305c0.090 0.175 0.079 0.497-0.034 1.292-0.119 0.796-0.243 0.937-0.519 0.587-0.141-0.181-0.141-0.181-0.203-0.056-0.085 0.147-0.175 0.107-0.175-0.085 0-0.073-0.051-0.181-0.119-0.237-0.062-0.051-0.152-0.164-0.198-0.254-0.045-0.085-0.119-0.152-0.164-0.152-0.068 0-0.085-0.107-0.085-0.581 0-0.852-0.152-1.332-0.587-1.834-0.231-0.265-0.282-0.406-0.158-0.406 0.023 0 0.186 0.102 0.372 0.226zM29.731 11.784c0.051-0.051 0.085-0.051 0.13-0.006s0.017 0.13-0.102 0.31c-0.299 0.44-0.372 0.694-0.395 1.428-0.028 0.801-0.079 0.965-0.299 1.005-0.090 0.023-0.175 0.085-0.198 0.147-0.051 0.164-0.356 0.53-0.502 0.61-0.079 0.040-0.147 0.147-0.169 0.254-0.045 0.237-0.119 0.158-0.226-0.265-0.113-0.418-0.113-0.745-0.011-0.847 0.068-0.073 0.062-0.152-0.051-0.576-0.169-0.638-0.214-1.027-0.152-1.202l0.051-0.135 0.068 0.13 0.073 0.13 0.13-0.124c0.073-0.068 0.186-0.248 0.248-0.401 0.107-0.237 0.231-0.367 0.231-0.237 0 0.028 0.023 0.079 0.051 0.119 0.056 0.096 0.271 0.006 0.621-0.254 0.226-0.169 0.26-0.181 0.344-0.102 0.068 0.062 0.107 0.068 0.158 0.017zM24.087 11.874c0.356 0.186 0.593 0.756 0.564 1.371l-0.017 0.384-0.214-0.017c-0.203-0.023-0.214-0.017-0.198 0.141 0.017 0.181-0.073 0.198-0.384 0.068-0.096-0.040-0.22-0.051-0.277-0.028-0.090 0.034-0.085 0.051 0.051 0.186 0.26 0.26 0.203 0.282-0.406 0.152-0.158-0.034-0.192-0.023-0.22 0.079-0.028 0.113-0.288 0.181-0.734 0.186-0.181 0.006-0.198 0.079-0.062 0.26 0.056 0.068-0.079 0.096-0.762 0.158-0.356 0.034-0.389 0.051-0.44 0.192s-0.090 0.158-0.514 0.22c-0.519 0.073-0.649 0.147-0.423 0.231 0.085 0.034 0.152 0.068 0.152 0.079 0 0.017-0.186 0.079-0.406 0.152-0.226 0.068-0.48 0.158-0.564 0.203-0.079 0.045-0.186 0.079-0.231 0.079-0.096 0-0.265 0.147-0.265 0.231 0 0.028 0.034 0.051 0.073 0.051 0.034 0 0.107 0.028 0.152 0.056 0.073 0.051 0.073 0.062 0 0.113-0.045 0.028-0.141 0.056-0.209 0.056-0.198 0-0.209 0.113-0.017 0.181 0.096 0.034 0.158 0.079 0.13 0.107-0.023 0.023-0.339 0.073-0.694 0.107s-0.745 0.079-0.869 0.096c-0.288 0.040-0.254-0.068 0.079-0.243 0.356-0.181 0.412-0.243 0.372-0.395-0.028-0.107 0.017-0.169 0.271-0.367 0.293-0.231 0.35-0.333 0.175-0.333s-0.124-0.113 0.102-0.22c0.135-0.068 0.271-0.119 0.305-0.119 0.073 0 0.254-0.198 0.209-0.237-0.017-0.023-0.102-0.017-0.186 0.011-0.26 0.073-0.322-0.017-0.124-0.186 0.214-0.181 0.717-0.373 1.163-0.44 0.271-0.045 0.367-0.090 0.491-0.237 0.096-0.119 0.141-0.22 0.124-0.299-0.040-0.152 0.090-0.254 0.412-0.31 0.147-0.028 0.356-0.124 0.468-0.209 0.141-0.113 0.316-0.175 0.615-0.226 0.226-0.040 0.44-0.085 0.468-0.102 0.028-0.023-0.028-0.119-0.13-0.226-0.22-0.226-0.158-0.243 0.305-0.085 0.344 0.113 0.423 0.062 0.209-0.135-0.265-0.243 0.011-0.271 0.48-0.051 0.31 0.147 0.446 0.147 0.339 0-0.31-0.418-0.316-0.468-0.051-0.373 0.124 0.051 0.175 0.045 0.22-0.017 0.028-0.045 0.113-0.096 0.181-0.119 0.085-0.028 0.107-0.068 0.090-0.147-0.034-0.135-0.006-0.141 0.198-0.034zM30.832 12.247c-0.034 0.119 0.113 0.164 0.181 0.056 0.056-0.090 0.35-0.068 0.389 0.028 0.023 0.062 0.124 0.085 0.395 0.085 0.22 0 0.384 0.028 0.406 0.068 0.023 0.034 0.011 0.079-0.023 0.090-0.039 0.011-0.068 0.096-0.068 0.186v0.164h0.7c0.711 0 0.903 0.056 0.632 0.181-0.186 0.079-0.186 0.147-0.006 0.192 0.079 0.017 0.141 0.068 0.141 0.107 0 0.102 0.096 0.158 0.339 0.198 0.147 0.023 0.198 0.056 0.198 0.141 0 0.073 0.045 0.119 0.119 0.13 0.068 0.011 0.135 0.068 0.152 0.13 0.017 0.073 0.079 0.107 0.181 0.107 0.085 0 0.203 0.062 0.282 0.147s0.35 0.248 0.604 0.361c0.638 0.282 0.858 0.418 0.88 0.525 0.011 0.062-0.028 0.096-0.135 0.107-0.085 0.011-0.164 0.040-0.169 0.073-0.011 0.028 0.243 0.181 0.559 0.339 0.316 0.152 0.581 0.316 0.593 0.356s-0.051 0.085-0.152 0.102c-0.096 0.023-0.175 0.062-0.175 0.090s0.141 0.113 0.31 0.192c0.169 0.079 0.31 0.164 0.31 0.192 0 0.023-0.068 0.062-0.152 0.085l-0.158 0.040 0.141 0.113c0.079 0.062 0.209 0.141 0.288 0.169s0.181 0.107 0.214 0.175c0.039 0.068 0.192 0.214 0.344 0.322 0.305 0.214 0.344 0.31 0.158 0.356-0.119 0.034-0.124 0.040-0.017 0.152 0.181 0.198 0.039 0.231-0.452 0.119-0.621-0.141-1.405-0.265-2.145-0.344-0.807-0.085-0.988-0.113-0.988-0.175 0-0.028 0.079-0.068 0.169-0.090 0.254-0.068 0.209-0.152-0.124-0.214-0.203-0.040-0.305-0.085-0.316-0.152-0.017-0.090 0.062-0.119 0.497-0.175 0.192-0.028 0.068-0.13-0.209-0.175-0.164-0.028-0.299-0.073-0.299-0.102s0.073-0.096 0.169-0.147c0.231-0.13 0.186-0.203-0.141-0.237-0.152-0.017-0.282-0.056-0.293-0.090-0.011-0.028 0.119-0.107 0.288-0.169 0.519-0.181 0.389-0.288-0.373-0.299-0.243-0.006-0.44-0.028-0.44-0.056s0.023-0.062 0.051-0.073c0.023-0.011 0.062-0.073 0.085-0.141 0.039-0.119 0.028-0.119-0.389-0.090-0.237 0.017-0.423 0.011-0.423-0.017 0-0.085 0.079-0.169 0.214-0.243 0.231-0.119 0.147-0.192-0.181-0.152-0.265 0.028-0.305 0.023-0.293-0.068 0.006-0.073-0.045-0.102-0.22-0.113-0.26-0.023-0.378-0.102-0.26-0.175 0.119-0.079 0.023-0.186-0.107-0.119-0.175 0.096-0.395 0.068-0.395-0.045 0-0.079-0.040-0.096-0.226-0.079-0.169 0.017-0.226 0-0.226-0.056 0-0.062-0.113-0.079-0.576-0.068-0.322 0.006-0.615 0.017-0.66 0.028-0.062 0.017-0.096-0.062-0.135-0.288-0.107-0.672 0.040-1.259 0.401-1.592 0.299-0.282 0.593-0.367 0.536-0.158zM31.001 15.057c0.051 0.056 0.113 0.186 0.13 0.293 0.040 0.175 0.034 0.186-0.096 0.147-0.073-0.023-0.198-0.051-0.277-0.051-0.175-0.011-0.282-0.265-0.169-0.401 0.096-0.119 0.299-0.113 0.412 0.011zM23.709 15.125c0.181 0.102 0.13 0.271-0.102 0.367-0.254 0.107-0.356 0.079-0.356-0.107 0-0.254 0.22-0.384 0.457-0.26zM31.436 16c0 0.102-0.147 0.248-0.378 0.378-0.231 0.135-0.897 0.141-1.078 0.011-0.181-0.124-0.152-0.192 0.062-0.13 0.096 0.028 0.35 0.056 0.559 0.062 0.367 0.006 0.384 0 0.564-0.198 0.203-0.226 0.271-0.254 0.271-0.124zM23.422 16.254c0 0.023 0.056 0.068 0.13 0.102 0.107 0.051 0.107 0.062 0.023 0.062-0.141 0.006-0.435-0.203-0.435-0.31 0-0.068 0.023-0.068 0.141 0.011 0.079 0.051 0.141 0.113 0.141 0.135zM26.463 17.456c0.096 0.192 0.169 0.265 0.254 0.265 0.068 0 0.152 0.028 0.186 0.062 0.045 0.045 0.085 0.028 0.135-0.068l0.073-0.135 0.034 0.135c0.045 0.198 0.147 0.209 0.243 0.028 0.051-0.096 0.096-0.13 0.119-0.085 0.062 0.102 0.135 0.073 0.22-0.085 0.051-0.096 0.096-0.13 0.119-0.085 0.068 0.102 0.181 0.073 0.248-0.073 0.045-0.107 0.090-0.13 0.22-0.102 0.085 0.011 0.186 0.051 0.226 0.079s0.119 0.040 0.181 0.017c0.13-0.040 0.401 0.113 0.401 0.231 0 0.040 0.068 0.107 0.147 0.147 0.085 0.040 0.198 0.164 0.254 0.271 0.062 0.107 0.293 0.389 0.514 0.621 0.226 0.237 0.491 0.525 0.587 0.649l0.175 0.226 0.305-0.147c0.305-0.152 0.745-0.333 1.123-0.474 0.705-0.254 2.066-0.542 2.517-0.53l0.22 0.006-0.198 0.056c-0.107 0.034-0.277 0.096-0.378 0.135-0.096 0.045-0.237 0.079-0.31 0.079-0.068 0-0.243 0.034-0.384 0.079s-0.406 0.124-0.593 0.175c-0.446 0.13-0.886 0.277-1.27 0.423-0.169 0.068-0.361 0.135-0.423 0.152s-0.152 0.062-0.198 0.102c-0.045 0.040-0.13 0.085-0.181 0.102-0.056 0.023-0.102 0.062-0.102 0.096 0 0.085 0.305 0.068 0.485-0.028 0.090-0.045 0.22-0.085 0.293-0.085 0.068 0 0.271-0.034 0.452-0.079 0.711-0.181 1.417-0.26 2.325-0.26 1.146 0 1.146 0.085 0 0.169-0.452 0.028-0.92 0.085-1.044 0.113s-0.35 0.056-0.508 0.056c-0.152 0.006-0.384 0.040-0.508 0.085s-0.339 0.096-0.48 0.119c-0.446 0.068-0.090 0.124 0.818 0.135 1.315 0.011 1.546 0.079 0.446 0.135-0.931 0.045-1.247 0.107-0.835 0.169 0.119 0.017 0.35 0.062 0.502 0.090 0.158 0.034 0.412 0.085 0.57 0.107 0.158 0.028 0.344 0.079 0.406 0.113s0.175 0.062 0.248 0.062c0.073 0 0.203 0.040 0.293 0.085 0.085 0.045 0.203 0.085 0.254 0.085 0.051 0.006 0.192 0.051 0.316 0.113s0.26 0.107 0.299 0.113c0.034 0 0.068 0.023 0.068 0.056 0 0.079-0.175 0.068-0.339-0.028-0.079-0.045-0.192-0.079-0.254-0.085-0.062 0-0.186-0.040-0.277-0.085-0.085-0.045-0.22-0.085-0.293-0.085s-0.214-0.034-0.316-0.079c-0.525-0.22-2.173-0.35-1.846-0.141 0.039 0.028 0.147 0.051 0.231 0.051s0.186 0.040 0.231 0.085c0.045 0.045 0.186 0.096 0.316 0.119s0.231 0.062 0.231 0.090c0 0.062-0.384 0.011-0.48-0.068-0.028-0.023-0.231-0.056-0.452-0.073-0.214-0.023-0.547-0.051-0.739-0.073-0.305-0.034-0.35-0.023-0.384 0.068-0.056 0.152 0.107 0.248 0.429 0.248 0.271 0 0.903 0.203 1.134 0.367 0.068 0.045 0.164 0.085 0.22 0.085 0.051 0 0.181 0.034 0.282 0.079s0.299 0.124 0.44 0.175c0.141 0.056 0.384 0.158 0.536 0.237 0.271 0.135 0.277 0.141 0.085 0.113-0.198-0.028-0.271-0.051-0.931-0.237-0.643-0.186-1.947-0.48-2.133-0.48-0.056 0-0.31 0.164-0.564 0.367-0.7 0.564-0.847 0.615-1.62 0.621-0.356 0-0.818-0.034-1.022-0.079-0.322-0.062-0.497-0.056-1.236 0.023-0.468 0.056-1.078 0.085-1.343 0.073-0.53-0.028-0.705-0.090-1.14-0.429-0.254-0.192-0.26-0.192-0.677-0.158-0.44 0.040-1.033 0.158-1.462 0.293-0.271 0.085-0.57 0.107-0.57 0.034s1.14-0.463 1.36-0.463c0.198 0 0.384-0.141 0.293-0.231-0.051-0.051-0.237-0.045-0.818 0.023-0.412 0.045-0.824 0.107-0.92 0.141-0.090 0.034-0.322 0.102-0.508 0.158-0.186 0.051-0.435 0.135-0.553 0.181-0.164 0.068-0.226 0.073-0.277 0.023s-0.051-0.068 0.017-0.068c0.040-0.006 0.181-0.051 0.305-0.113s0.271-0.107 0.322-0.113c0.051 0 0.107-0.023 0.124-0.051 0.023-0.028 0.141-0.068 0.277-0.090 0.13-0.017 0.299-0.056 0.378-0.090 0.135-0.051 0.265-0.073 1.259-0.231 0.243-0.040 0.44-0.102 0.446-0.13 0-0.034-0.096-0.085-0.214-0.119-0.124-0.034-0.22-0.096-0.22-0.141 0-0.124-0.26-0.152-1.738-0.158-0.847-0.006-1.388-0.028-1.366-0.056 0.051-0.085 1.078-0.164 2.286-0.175l0.367-0.006-0.395-0.135c-0.214-0.079-0.497-0.141-0.621-0.141s-0.378-0.040-0.564-0.085c-0.186-0.045-0.463-0.079-0.621-0.085-0.412 0-0.728-0.062-0.638-0.119 0.248-0.164 2.218 0.062 3.381 0.384 0.384 0.107 0.525 0.085 0.547-0.085 0.028-0.169-0.068-0.277-0.288-0.327-0.102-0.023-0.254-0.068-0.35-0.107-0.463-0.192-1.947-0.593-2.201-0.593-0.085 0-0.288-0.040-0.446-0.085s-0.451-0.102-0.655-0.13l-0.367-0.051 0.502-0.011c0.626-0.006 1.642 0.147 2.32 0.361 0.124 0.040 0.378 0.113 0.564 0.164 0.186 0.056 0.418 0.124 0.514 0.152 0.271 0.079 0.288 0.062 0.079-0.119-0.288-0.254-0.31-0.265-0.44-0.305-0.068-0.023-0.124-0.068-0.124-0.096 0-0.085 0.203-0.056 0.282 0.034 0.040 0.045 0.119 0.085 0.175 0.085s0.119 0.028 0.135 0.062c0.023 0.028 0.096 0.085 0.158 0.113 0.068 0.028 0.186 0.090 0.26 0.13 0.124 0.073 0.158 0.051 0.762-0.559 0.344-0.35 0.739-0.705 0.88-0.79 0.327-0.198 0.564-0.418 0.626-0.581 0.028-0.068 0.096-0.124 0.152-0.124s0.164-0.062 0.237-0.141c0.073-0.079 0.164-0.135 0.192-0.124 0.034 0.011 0.119 0.141 0.198 0.282zM25.91 22.914c0.31 0.164 0.322 0.169 1.242 0.169l0.926 0.006 0.322-0.169c0.327-0.175 0.519-0.22 0.581-0.124 0.034 0.056-0.169 0.214-0.468 0.367-0.282 0.147-0.971 0.26-1.586 0.265-0.451 0.006-0.587-0.011-0.796-0.119-0.491-0.237-0.801-0.446-0.756-0.514 0.056-0.090 0.22-0.056 0.536 0.119z"></path>
<path d="M26.486 19.121c-0.976 0.401-1.371 1.58-0.779 2.342 0.271 0.356 0.576 0.446 1.524 0.457 0.717 0.006 0.813-0.006 1.022-0.119 0.327-0.175 0.61-0.525 0.728-0.897 0.113-0.361 0.085-0.587-0.124-1.022-0.141-0.305-0.542-0.694-0.717-0.694-0.119 0-0.113 0.068 0.017 0.152 0.152 0.096 0.361 0.559 0.322 0.717-0.045 0.186-0.175 0.203-0.621 0.090-0.378-0.102-0.598-0.254-0.598-0.418 0-0.096 0.491-0.542 0.598-0.542 0.124 0 0.090-0.096-0.045-0.135-0.271-0.068-1.089-0.028-1.326 0.068zM26.351 19.753c0.214 0.271 0.198 0.423-0.056 0.48s-0.35-0.051-0.31-0.356c0.056-0.429 0.107-0.446 0.367-0.124zM26.322 21.108c0.051 0 0.090 0.023 0.090 0.056 0 0.113-0.265 0.051-0.384-0.085-0.186-0.214-0.152-0.333 0.040-0.135 0.090 0.090 0.209 0.164 0.254 0.164z"></path>
</symbol>
</defs>
</svg>
