<!-- Generated by IcoMoon.io -->
<svg version="1.1" xmlns="http://www.w3.org/2000/svg" width="33" height="32" viewBox="0 0 33 32">
<path d="M14.816 0.11c-12.378 1.293-18.91 15.255-11.956 25.556 2.334 3.463 7.688 7.041 8.734 5.847l0.351-0.395v-3.556h-1.452c-2.279 0-3.079-0.482-4.049-2.46-0.449-0.904-1.041-1.627-1.836-2.208-0.537-0.4-0.411-0.647 0.329-0.647 0.778 0 1.216 0.241 1.945 1.074 1.726 1.973 1.929 2.104 3.315 2.104 1.151 0 1.825-0.247 1.956-0.718 0.148-0.537 0.614-1.304 0.948-1.567l0.279-0.225-0.416-0.066c-3.003-0.466-4.46-1.074-5.792-2.405-2.531-2.537-2.931-7.556-0.822-10.362 0.422-0.553 0.449-0.636 0.367-1.041-0.34-1.693 0.044-4.241 0.652-4.307 0.718-0.082 2.816 0.718 3.989 1.523l0.51 0.351 0.778-0.186c1.841-0.444 5.649-0.471 7.244-0.060 0.411 0.11 0.488 0.088 1.315-0.384 1.304-0.745 2.422-1.178 3.205-1.238l0.685-0.055 0.159 0.384c0.318 0.762 0.427 1.863 0.301 2.997l-0.121 1.052 0.532 0.69c1.26 1.649 1.699 3.479 1.441 6.033-0.438 4.345-2.597 6.449-7.085 6.91-0.838 0.088-0.926 0.17-0.51 0.466 0.882 0.63 1.118 1.737 1.118 5.277 0 3.847 0.159 3.984 2.959 2.575 8.049-4.049 11.282-13.995 7.173-22.066-3.058-5.995-9.611-9.584-16.247-8.893z"></path>
</svg>
