<svg width="16" height="16" viewBox="0 0 16 16" fill="none" xmlns="http://www.w3.org/2000/svg">
<path d="M15.2826 14.2178L12.5001 11.4578C13.5801 10.1111 14.1032 8.40177 13.9617 6.68127C13.8201 4.96077 13.0248 3.35988 11.7392 2.20778C10.4536 1.05567 8.77541 0.439927 7.04974 0.487147C5.32408 0.534368 3.68209 1.24097 2.46141 2.46165C1.24072 3.68234 0.534124 5.32432 0.486903 7.04999C0.439683 8.77565 1.05543 10.4538 2.20753 11.7394C3.35964 13.025 4.96053 13.8204 6.68103 13.9619C8.40153 14.1034 10.1109 13.5804 11.4576 12.5003L14.2176 15.2603C14.2873 15.3306 14.3702 15.3864 14.4616 15.4245C14.553 15.4625 14.651 15.4821 14.7501 15.4821C14.8491 15.4821 14.9471 15.4625 15.0385 15.4245C15.1299 15.3864 15.2128 15.3306 15.2826 15.2603C15.4177 15.1204 15.4933 14.9335 15.4933 14.739C15.4933 14.5445 15.4177 14.3576 15.2826 14.2178ZM7.25005 12.5003C6.2117 12.5003 5.19667 12.1924 4.33331 11.6155C3.46995 11.0386 2.79704 10.2187 2.39968 9.25938C2.00232 8.30007 1.89836 7.24447 2.10093 6.22607C2.3035 5.20767 2.80351 4.27221 3.53774 3.53798C4.27197 2.80376 5.20743 2.30374 6.22583 2.10117C7.24423 1.8986 8.29983 2.00257 9.25914 2.39993C10.2185 2.79729 11.0384 3.47019 11.6153 4.33355C12.1921 5.19691 12.5001 6.21194 12.5001 7.25029C12.5001 8.64268 11.9469 9.97804 10.9624 10.9626C9.9778 11.9472 8.64244 12.5003 7.25005 12.5003Z" fill="#050505" fill-opacity="0.5"/>
</svg>
